<?xml version="1.0" encoding="utf-8"?><svg xmlns="http://www.w3.org/2000/svg" xmlns:xlink="http://www.w3.org/1999/xlink" width="1290" height="143" preserveAspectRatio="xMidYMid" viewBox="0 0 1290 143" style="z-index:1;display:block;animation-play-state:paused" ><g transform="translate(645,71.5) scale(1,1) translate(-645,-71.5)" style="animation-play-state:paused" ><linearGradient id="lg-0.4624855877360964" x1="0" x2="1" y1="0" y2="0" style="animation-play-state:paused" ><stop stop-color="#f3f3f3" offset="0" style="animation-play-state:paused" ></stop>

  
<stop stop-color="#f3f3f3" offset="1" style="animation-play-state:paused" ></stop></linearGradient>
<path d="M 0 0 L 0 57.488 Q 129 78.8836 258 47.8259 T 516 39.7359 T 774 71.4387 T 1032 75.0595 T 1290 59.3714 L 1290 0 Z" fill="url(#lg-0.4624855877360964)" opacity="0.4" style="opacity:0.4;animation-play-state:paused" ></path>
<path d="M 0 0 L 0 51.7444 Q 129 100.407 258 63.4484 T 516 43.5513 T 774 55.823 T 1032 69.5722 T 1290 52.7582 L 1290 0 Z" fill="url(#lg-0.4624855877360964)" opacity="0.4" style="opacity:0.4;animation-play-state:paused" ></path>
<path d="M 0 0 L 0 59.8752 Q 129 94.8503 258 64.6819 T 516 54.2198 T 774 33.9886 T 1032 60.4575 T 1290 28.3987 L 1290 0 Z" fill="url(#lg-0.4624855877360964)" opacity="0.4" style="opacity:0.4;animation-play-state:paused" ></path>
<path d="M 0 0 L 0 49.1261 Q 129 82.2953 258 46.2755 T 516 60.6186 T 774 59.5496 T 1032 59.595 T 1290 67.9791 L 1290 0 Z" fill="url(#lg-0.4624855877360964)" opacity="0.4" style="opacity:0.4;animation-play-state:paused" ></path>
<path d="M 0 0 L 0 66.4672 Q 129 74.8257 258 54.8926 T 516 48.6279 T 774 59.6225 T 1032 19.4761 T 1290 56.0015 L 1290 0 Z" fill="url(#lg-0.4624855877360964)" opacity="0.4" style="opacity:0.4;animation-play-state:paused" ></path></g></svg>